<mxfile host="app.diagrams.net" modified="2023-10-21T03:25:38.078Z" agent="Mozilla/5.0 (Windows NT 10.0; Win64; x64) AppleWebKit/537.36 (KHTML, like Gecko) Chrome/118.0.0.0 Safari/537.36 Edg/118.0.2088.57" etag="4wZNZO0MK52PTfkyDOsn" version="22.0.6" type="google">
  <diagram name="Trang-1" id="muutc7wVV3_KqdDqmoOl">
    <mxGraphModel grid="0" page="1" gridSize="10" guides="1" tooltips="1" connect="1" arrows="1" fold="1" pageScale="1" pageWidth="827" pageHeight="1169" background="none" math="0" shadow="0">
      <root>
        <mxCell id="0" />
        <mxCell id="1" parent="0" />
        <mxCell id="WYwJlAyC4F221uzyaEGs-2" value="" style="html=1;points=[[0,0,0,0,5],[0,1,0,0,-5],[1,0,0,0,5],[1,1,0,0,-5]];perimeter=orthogonalPerimeter;outlineConnect=0;targetShapes=umlLifeline;portConstraint=eastwest;newEdgeStyle={&quot;curved&quot;:0,&quot;rounded&quot;:0};labelBackgroundColor=none;fillColor=#FFFFFF;strokeColor=#0F8B8D;fontColor=#143642;rounded=1;" vertex="1" parent="1">
          <mxGeometry x="-70" y="370" width="692" height="343" as="geometry" />
        </mxCell>
        <mxCell id="WYwJlAyC4F221uzyaEGs-3" value="SPSO" style="shape=umlActor;verticalLabelPosition=bottom;verticalAlign=top;html=1;outlineConnect=0;rounded=1;strokeWidth=2;perimeterSpacing=5;shadow=0;labelBackgroundColor=none;horizontal=1;fontSize=14;fillColor=#FAE5C7;strokeColor=#0F8B8D;fontColor=#143642;" vertex="1" parent="1">
          <mxGeometry x="-50" y="484" width="40" height="80" as="geometry" />
        </mxCell>
        <mxCell id="WYwJlAyC4F221uzyaEGs-4" value="Login" style="ellipse;whiteSpace=wrap;html=1;strokeWidth=2;fontSize=14;labelBackgroundColor=none;fillColor=#FAE5C7;strokeColor=#0F8B8D;fontColor=#143642;rounded=1;" vertex="1" parent="1">
          <mxGeometry x="108" y="489" width="147" height="75" as="geometry" />
        </mxCell>
        <mxCell id="WYwJlAyC4F221uzyaEGs-5" value="Forgotpassword" style="ellipse;whiteSpace=wrap;html=1;strokeWidth=2;fontSize=14;labelBackgroundColor=none;fillColor=#FAE5C7;strokeColor=#0F8B8D;fontColor=#143642;rounded=1;" vertex="1" parent="1">
          <mxGeometry x="398" y="398" width="140" height="70" as="geometry" />
        </mxCell>
        <mxCell id="WYwJlAyC4F221uzyaEGs-6" value="&amp;lt;&amp;lt; extend &amp;gt;&amp;gt;" style="html=1;verticalAlign=bottom;endArrow=open;dashed=1;endSize=8;curved=0;rounded=1;exitX=0;exitY=0.5;exitDx=0;exitDy=0;strokeWidth=2;fontSize=14;labelBackgroundColor=none;strokeColor=#A8201A;fontColor=default;" edge="1" parent="1" source="WYwJlAyC4F221uzyaEGs-5" target="WYwJlAyC4F221uzyaEGs-4">
          <mxGeometry relative="1" as="geometry">
            <mxPoint x="320" y="363" as="sourcePoint" />
            <mxPoint x="240" y="363" as="targetPoint" />
          </mxGeometry>
        </mxCell>
        <mxCell id="WYwJlAyC4F221uzyaEGs-7" value="" style="endArrow=none;html=1;rounded=1;entryX=0;entryY=0.5;entryDx=0;entryDy=0;strokeWidth=2;fontSize=14;labelBackgroundColor=none;strokeColor=#A8201A;fontColor=default;" edge="1" parent="1" source="WYwJlAyC4F221uzyaEGs-3" target="WYwJlAyC4F221uzyaEGs-4">
          <mxGeometry width="50" height="50" relative="1" as="geometry">
            <mxPoint x="10" y="453" as="sourcePoint" />
            <mxPoint x="60" y="403" as="targetPoint" />
            <Array as="points" />
          </mxGeometry>
        </mxCell>
        <mxCell id="WYwJlAyC4F221uzyaEGs-8" value="Logout" style="ellipse;whiteSpace=wrap;html=1;strokeWidth=2;fontSize=14;labelBackgroundColor=none;fillColor=#FAE5C7;strokeColor=#0F8B8D;fontColor=#143642;rounded=1;" vertex="1" parent="1">
          <mxGeometry x="108" y="611" width="147" height="75" as="geometry" />
        </mxCell>
        <mxCell id="WYwJlAyC4F221uzyaEGs-9" value="" style="endArrow=none;html=1;rounded=1;entryX=0;entryY=0.5;entryDx=0;entryDy=0;strokeWidth=2;fontSize=14;labelBackgroundColor=none;strokeColor=#A8201A;fontColor=default;" edge="1" parent="1" target="WYwJlAyC4F221uzyaEGs-8">
          <mxGeometry width="50" height="50" relative="1" as="geometry">
            <mxPoint x="-4" y="524" as="sourcePoint" />
            <mxPoint x="118" y="537" as="targetPoint" />
            <Array as="points" />
          </mxGeometry>
        </mxCell>
      </root>
    </mxGraphModel>
  </diagram>
</mxfile>
